<svg xmlns="http://www.w3.org/2000/svg" viewBox="0 0 48 48"><g data-name="Layer 2"><path fill="#33375c" d="M14.63,34.78a3.42,3.42,0,0,0-1.41-1.41A3.54,3.54,0,0,0,9,34L6.3,36.68a1,1,0,0,0,0,1.41L9.91,41.7a1,1,0,0,0,1.41,0L14,39a3.55,3.55,0,0,0,.6-4.22Zm-2,2.8-2,2L8.42,37.39l2-2a1.56,1.56,0,0,1,2.2,2.2Z"/><path fill="#b9d5ea" d="M12.62,37.58l-2,2L8.42,37.39l2-2a1.56,1.56,0,0,1,2.2,2.2Z"/><path fill="#33375c" d="M24,30.87a1,1,0,0,1-.71.29,1,1,0,0,1-.71-.29l-.9-.9-1.1-1.1-1.41-1.41-2-2a1,1,0,0,1,0-1.42,1,1,0,0,1,1.41,0l.2.2,1.41,1.41,1.1,1.1,2.51,2.51.2.2A1,1,0,0,1,24,30.87Z"/><path fill="#33375c" d="M40.21,7.79a6.12,6.12,0,0,0-8.64,0l-9.44,9.45-.7.71-.72.71-.87.87a1,1,0,0,0-.3.7,1,1,0,0,0,.29.71,1.49,1.49,0,0,1,.45,1.12,1.1,1.1,0,0,1,0,.26,1.52,1.52,0,0,1-.43.82l-.78.79-.31.31L18,25a1,1,0,0,0,0,1.41l1.1,1.1,1.41,1.41,1.1,1.1a1,1,0,0,0,.71.29,1,1,0,0,0,.7-.29l.71-.71.31-.3.8-.79a1.43,1.43,0,0,1,.83-.41,1.37,1.37,0,0,1,.57,0h.05a.88.88,0,0,1,.23.07,1.32,1.32,0,0,1,.51.33,1,1,0,0,0,1.41,0l.88-.88,1.41-1.41,9.45-9.45a6.11,6.11,0,0,0,0-8.64ZM38.8,15,28.65,25.17l-1,1a3.63,3.63,0,0,0-4.22.6l-.08.09-1,1-1.1-1.1-1.1-1.1,1.1-1.1a3.43,3.43,0,0,0,1-2.49,3.5,3.5,0,0,0-.42-1.72l1-1h0L33,9.2A4.11,4.11,0,0,1,38.8,15Z"/><path fill="#48bdff" d="M40,12.1A4.08,4.08,0,0,1,38.8,15L28.65,25.17l-1,1a3.63,3.63,0,0,0-4.22.6l-.08.09-1,1-1.1-1.1-1.1-1.1,1.1-1.1a3.43,3.43,0,0,0,1-2.49,3.5,3.5,0,0,0-.42-1.72l1-1h0L33,9.2a4.11,4.11,0,0,1,7,2.9Z"/><path fill="#33375c" d="M13.32 35.68a1 1 0 0 1-.7-1.71l7.22-7.22a1 1 0 1 1 1.41 1.41L14 35.38A1 1 0 0 1 13.32 35.68zM22.84 18L20 15.11a7.15 7.15 0 0 0-9.47-8.63 1 1 0 0 0-.35 1.64l3.56 3.56-.52 1.54-1.54.52L8.12 10.18a1 1 0 0 0-1.64.35A7.15 7.15 0 0 0 15.11 20l3.94 3.93.7.7a1 1 0 0 0 1.41 0l.09-.08a3.43 3.43 0 0 0 1-2.49 3.5 3.5 0 0 0-.42-1.72l1-1h0a1 1 0 0 0 .29-.7A1 1 0 0 0 22.84 18zm-3 1.58a1 1 0 0 0-.3.7 1 1 0 0 0 .29.71 1.49 1.49 0 0 1 .45 1.12 1.1 1.1 0 0 1 0 .26l-4.17-4.17a1 1 0 0 0-.71-.3 1.21 1.21 0 0 0-.37.07 5.14 5.14 0 0 1-7-5l2.7 2.7a1 1 0 0 0 1 .24l2.6-.87a1 1 0 0 0 .63-.63l.87-2.6a1 1 0 0 0-.24-1L12.89 8a5.15 5.15 0 0 1 5 7 1 1 0 0 0 .23 1.07l2.56 2.57z"/><path fill="#ebf3fe" d="M19.83,20.94a1.49,1.49,0,0,1,.45,1.12,1.1,1.1,0,0,1,0,.26l-4.17-4.17a1,1,0,0,0-.71-.3,1.21,1.21,0,0,0-.37.07,5.14,5.14,0,0,1-7-5l2.7,2.7a1,1,0,0,0,1,.24l2.6-.87a1,1,0,0,0,.63-.63l.87-2.6a1,1,0,0,0-.24-1L12.89,8a5.15,5.15,0,0,1,5,7,1,1,0,0,0,.23,1.07l2.56,2.57-.87.87a1,1,0,0,0-.3.7A1,1,0,0,0,19.83,20.94Z"/><path fill="#33375c" d="M39.91,29.81a7.16,7.16,0,0,0-7-1.81l-2.13-2.12-.7-.7a1,1,0,0,0-1.41,0l-1,1a3.63,3.63,0,0,0-4.22.6l-.08.09a1,1,0,0,0,0,1.41l.7.71L28,32.89A7.15,7.15,0,0,0,34.87,42a7.38,7.38,0,0,0,2.6-.48,1,1,0,0,0,.35-1.64l-3.56-3.56.52-1.54,1.54-.52,3.56,3.56a1,1,0,0,0,1.64-.35A7.18,7.18,0,0,0,39.91,29.81Zm-2.61,2.6a1,1,0,0,0-1-.24l-2.6.87a1,1,0,0,0-.63.63l-.87,2.6a1,1,0,0,0,.24,1l2.7,2.7a5.15,5.15,0,0,1-5-7,1,1,0,0,0-.23-1.07l-4.17-4.17a1.46,1.46,0,0,1,.59,0h.05a.88.88,0,0,1,.23.07,1.32,1.32,0,0,1,.51.33,1,1,0,0,0,1.41,0l.88-.88,2.56,2.56a1,1,0,0,0,1.08.23,5.14,5.14,0,0,1,7,5Z"/><path fill="#ebf3fe" d="M40,35.11l-2.7-2.7a1,1,0,0,0-1-.24l-2.6.87a1,1,0,0,0-.63.63l-.87,2.6a1,1,0,0,0,.24,1l2.7,2.7a5.15,5.15,0,0,1-5-7,1,1,0,0,0-.23-1.07L25.7,27.76a1.37,1.37,0,0,1,.57,0h.05a.88.88,0,0,1,.23.07,1.32,1.32,0,0,1,.51.33,1,1,0,0,0,1.41,0l.88-.88,2.56,2.56a1,1,0,0,0,1.08.23,5.14,5.14,0,0,1,7,5Z"/></g></svg>