<svg xmlns="http://www.w3.org/2000/svg" data-name="Layer 1" viewBox="0 0 512 512"><g data-name="&lt;Group&gt;"><g data-name="&lt;Group&gt;"><polygon fill="#00acea" points="475.12 441.12 475.12 466.6 414.59 466.6 370.91 466.6 310.38 466.6 310.38 441.12 475.12 441.12" data-name="&lt;Group&gt;"/><rect width="164.74" height="87.8" x="310.38" y="353.32" fill="#fedb41" data-name="&lt;Group&gt;"/><path fill="#00efd1" d="M256,244.44H155.23a67.99,67.99,0,0,1-67.99-67.99h.01c-.01-.62-.01-.7-.01-.7v-.03a85.541,85.541,0,0,1,75.38-84.94,98.112,98.112,0,0,1,192.5,26.73c0,.42,0,.83-.01,1.25a57.34,57.34,0,0,1,11.19-.84,58.275,58.275,0,0,1,58.29,58.53h.17a67.99,67.99,0,0,1-67.99,67.99Z" data-name="&lt;Group&gt;"/><polygon fill="#00efd1" points="414.59 466.6 421.87 492.56 363.63 492.56 370.91 466.6 414.59 466.6" data-name="&lt;Group&gt;"/><polygon fill="#00acea" points="201.62 441.12 201.62 466.6 141.09 466.6 97.41 466.6 36.88 466.6 36.88 441.12 201.62 441.12" data-name="&lt;Group&gt;"/><rect width="164.74" height="87.8" x="36.88" y="353.32" fill="#fedb41" data-name="&lt;Group&gt;"/><polygon fill="#00efd1" points="141.09 466.6 148.37 492.56 90.13 492.56 97.41 466.6 141.09 466.6" data-name="&lt;Group&gt;"/></g><g data-name="&lt;Group&gt;"><path fill="#083863" d="M155.23 251H249v30H120.76a6.706 6.706 0 0 0-6.76 6.89V333h14V295H384v38h14V287.89a6.706 6.706 0 0 0-6.76-6.89H263V251h93.77a74.887 74.887 0 0 0 74.99-74.77 6.106 6.106 0 0 0-.19-1.515 65.431 65.431 0 0 0-65.27-63.85c-1.426 0-2.89.043-4.38.1a105.113 105.113 0 0 0-204.683-26.5 92.447 92.447 0 0 0-77 91.277s0 .059.005.434c0 .089-.005-.041-.005.048A74.888 74.888 0 0 0 155.23 251zm8.2-153.268a7 7 0 0 0 5.921-5.042A91.112 91.112 0 0 1 348.12 117.51c0 .364 0 .719-.008 1.083a7 7 0 0 0 8.363 7.032A52.472 52.472 0 0 1 417.59 176.45a5.083 5.083 0 0 0 .153 1.241A60.875 60.875 0 0 1 356.77 237H155.23a60.873 60.873 0 0 1-60.989-60.415c.008-.155.011-.2.008-.358l-.009-.562A78.364 78.364 0 0 1 163.433 97.732zM36.88 474h51.3l-3.354 12H77.93a7 7 0 0 0 0 14h82.64a7 7 0 0 0 0-14h-6.893l-3.354-12h51.3a7.684 7.684 0 0 0 7.38-7.4V353.32a7.613 7.613 0 0 0-7.38-7.32H36.88A7.18 7.18 0 0 0 30 353.32V466.6C30 470.466 33.014 474 36.88 474zm102.257 12H99.363l3.354-12h33.066zM44 360H195v74H44zm151 88v12H44V448zM303 353.32V466.6a7.684 7.684 0 0 0 7.38 7.4h51.3l-3.354 12H351.43a7 7 0 0 0 0 14h82.64a7 7 0 0 0 0-14h-6.893l-3.354-12h51.3c3.866 0 6.88-3.534 6.88-7.4V353.32a7.18 7.18 0 0 0-6.88-7.32H310.38A7.613 7.613 0 0 0 303 353.32zM412.637 486H372.863l3.354-12h33.066zM468 460H317V448H468zm0-100v74H317V360z" data-name="&lt;Compound Path&gt;"/></g></g></svg>