<svg xmlns="http://www.w3.org/2000/svg" height="568pt" version="1.1" viewBox="-96 0 568 568.59692" width="568pt">
<g id="surface1">
<path d="M 225.71875 146.28125 C 225.71875 167.035156 208.898438 183.855469 188.144531 183.855469 C 167.394531 183.855469 150.570312 167.035156 150.570312 146.28125 C 150.570312 125.53125 167.394531 108.707031 188.144531 108.707031 C 208.898438 108.707031 225.71875 125.53125 225.71875 146.28125 Z M 225.71875 146.28125 " style=" stroke:none;fill-rule:nonzero;fill:rgb(100%,59.607843%,6.666667%);fill-opacity:1;" />
<path d="M 188.144531 227.855469 L 97.222656 550.210938 L 279.066406 550.210938 Z M 188.144531 227.855469 " style=" stroke:none;fill-rule:nonzero;fill:rgb(0%,86.666667%,76.078431%);fill-opacity:1;" />
<path d="M 74.078125 13.425781 L 60.792969 0.144531 C -19.777344 80.910156 -19.777344 211.652344 60.792969 292.421875 L 74.078125 279.136719 C 0.839844 205.707031 0.839844 86.859375 74.078125 13.425781 Z M 74.078125 13.425781 " style=" stroke:none;fill-rule:nonzero;fill:rgb(13.72549%,12.156863%,12.54902%);fill-opacity:1;" />
<path d="M 315.496094 0.144531 L 302.214844 13.425781 C 375.449219 86.859375 375.449219 205.707031 302.214844 279.136719 L 315.496094 292.417969 C 396.367188 211.671875 396.765625 80.949219 316.019531 0.078125 C 315.945312 0 315.867188 -0.0742188 315.496094 0.144531 Z M 315.496094 0.144531 " style=" stroke:none;fill-rule:nonzero;fill:rgb(13.72549%,12.156863%,12.54902%);fill-opacity:1;" />
<path d="M 87.371094 265.84375 L 100.660156 252.554688 C 42.058594 193.824219 42.058594 98.738281 100.660156 40.011719 L 87.371094 26.71875 C 21.4375 92.792969 21.4375 199.769531 87.371094 265.84375 Z M 87.371094 265.84375 " style=" stroke:none;fill-rule:nonzero;fill:rgb(13.72549%,12.156863%,12.54902%);fill-opacity:1;" />
<path d="M 275.628906 252.554688 L 288.921875 265.84375 C 354.851562 199.769531 354.851562 92.792969 288.921875 26.71875 L 275.628906 40.011719 C 334.234375 98.738281 334.234375 193.824219 275.628906 252.554688 Z M 275.628906 252.554688 " style=" stroke:none;fill-rule:nonzero;fill:rgb(13.72549%,12.156863%,12.54902%);fill-opacity:1;" />
<path d="M 113.933594 239.28125 L 127.21875 225.996094 C 83.265625 181.949219 83.265625 110.632812 127.21875 66.585938 L 113.933594 53.285156 C 62.632812 104.667969 62.632812 187.894531 113.933594 239.28125 Z M 113.933594 239.28125 " style=" stroke:none;fill-rule:nonzero;fill:rgb(13.72549%,12.156863%,12.54902%);fill-opacity:1;" />
<path d="M 262.355469 239.28125 C 313.660156 187.894531 313.660156 104.667969 262.355469 53.28125 L 249.0625 66.574219 C 293.015625 110.625 293.015625 181.9375 249.0625 225.988281 Z M 262.355469 239.28125 " style=" stroke:none;fill-rule:nonzero;fill:rgb(13.72549%,12.156863%,12.54902%);fill-opacity:1;" />
<path d="M 200.1875 201.320312 C 230.597656 194.667969 249.855469 164.625 243.207031 134.214844 C 236.554688 103.804688 206.511719 84.546875 176.101562 91.199219 C 145.695312 97.847656 126.433594 127.890625 133.085938 158.300781 C 137.789062 179.8125 154.589844 196.613281 176.101562 201.320312 L 75.769531 557.058594 C 74.363281 562.054688 77.269531 567.242188 82.265625 568.648438 C 83.09375 568.882812 83.953125 569 84.8125 569 L 291.476562 569 C 296.664062 569 300.871094 564.796875 300.875 559.609375 C 300.875 558.75 300.757812 557.890625 300.523438 557.058594 Z M 150.570312 146.28125 C 150.570312 125.53125 167.394531 108.707031 188.144531 108.707031 C 208.894531 108.707031 225.71875 125.53125 225.71875 146.28125 C 225.71875 167.035156 208.894531 183.855469 188.144531 183.855469 C 167.394531 183.855469 150.570312 167.035156 150.570312 146.28125 Z M 97.222656 550.210938 L 188.144531 227.855469 L 279.066406 550.210938 Z M 97.222656 550.210938 " style=" stroke:none;fill-rule:nonzero;fill:rgb(13.72549%,12.156863%,12.54902%);fill-opacity:1;" />
</g>
</svg>