<svg id="Layer_1" height="512" viewBox="0 0 512 512" width="512" xmlns="http://www.w3.org/2000/svg" xmlns:xlink="http://www.w3.org/1999/xlink" data-name="Layer 1"><linearGradient id="linear-gradient" gradientUnits="userSpaceOnUse" x1="256" x2="256" y1="400.083" y2="153.201"><stop offset=".322" stop-color="#a163f5"/><stop offset=".466" stop-color="#b074ee"/><stop offset=".752" stop-color="#d8a1dd"/><stop offset=".898" stop-color="#efbad3"/></linearGradient><linearGradient id="linear-gradient-5" x1="199.609" x2="199.609" xlink:href="#linear-gradient" y1="400.083" y2="153.201"/><linearGradient id="linear-gradient-6" x1="247.181" x2="247.181" xlink:href="#linear-gradient" y1="400.083" y2="153.201"/><linearGradient id="linear-gradient-7" x1="247.099" x2="247.099" xlink:href="#linear-gradient" y1="400.083" y2="153.201"/><linearGradient id="linear-gradient-8" x1="274.13" x2="274.13" xlink:href="#linear-gradient" y1="400.083" y2="153.201"/><linearGradient id="linear-gradient-9" x1="314.349" x2="314.349" xlink:href="#linear-gradient" y1="400.083" y2="153.201"/><linearGradient id="linear-gradient-10" x1="343.055" x2="343.055" xlink:href="#linear-gradient" y1="400.083" y2="153.201"/><linearGradient id="linear-gradient-11" x1="343.137" x2="343.137" xlink:href="#linear-gradient" y1="400.083" y2="153.201"/><g fill="url(#linear-gradient)"><path d="m188.9 227.188a6 6 0 1 0 8.472 8.5 83.025 83.025 0 0 1 117.252 0 6 6 0 1 0 8.472-8.5 95.026 95.026 0 0 0 -134.2 0z"/><path d="m381.884 174.414a6 6 0 0 0 4.241-10.245 184.183 184.183 0 0 0 -260.25 0 6 6 0 0 0 8.481 8.49 172.182 172.182 0 0 1 243.288 0 5.981 5.981 0 0 0 4.24 1.755z"/><path d="m71.352 109.654a261.252 261.252 0 0 1 369.3 0 6 6 0 0 0 8.482-8.488 273.25 273.25 0 0 0 -386.26 0 6 6 0 0 0 8.482 8.488z"/><path d="m256 301.005a19.611 19.611 0 1 0 19.611 19.61 19.633 19.633 0 0 0 -19.611-19.61zm0 27.222a7.611 7.611 0 1 1 7.611-7.612 7.62 7.62 0 0 1 -7.611 7.612z"/></g><path d="m187.115 446.817c3.674 0 7.594-1.387 8.247-4.245l4.247-19.356 4.246 19.356c.654 2.858 4.574 4.245 8.249 4.245 3.756 0 7.431-1.387 8.411-4.245l16.251-49.816a3.606 3.606 0 0 0 .163-1.061c0-2.778-4.573-5.064-8.248-5.064-1.96 0-3.593.654-4.083 2.368l-12.412 41.894-6.452-27.6c-.49-2.2-3.348-3.347-6.125-3.347s-5.635 1.143-6.125 3.347l-6.451 27.6-12.413-41.893c-.49-1.714-2.123-2.368-4.083-2.368-3.675 0-8.248 2.286-8.248 5.064a3.6 3.6 0 0 0 .164 1.061l16.25 49.816c.897 2.857 4.655 4.244 8.412 4.244z" fill="url(#linear-gradient-5)"/><path d="m240.852 411.293v31.114c0 1.962 2.613 3.921 6.289 3.921 3.511 0 6.369-1.959 6.369-3.921v-31.114c0-2.286-2.858-3.836-6.369-3.836-3.676 0-6.289 1.55-6.289 3.836z" fill="url(#linear-gradient-6)"/><path d="m247.141 388.266c-3.757 0-6.7 2.693-6.7 5.8s2.94 5.88 6.7 5.88c3.674 0 6.614-2.778 6.614-5.88s-2.94-5.8-6.614-5.8z" fill="url(#linear-gradient-7)"/><path d="m284.705 431.874c1.96 0 3.92-2.041 3.92-5.146 0-2.94-1.96-5.227-3.92-5.227h-21.233c-2.286 0-3.838 2.287-3.838 5.227 0 3.105 1.552 5.146 3.838 5.146z" fill="url(#linear-gradient-8)"/><path d="m329.375 397.738c2.45 0 3.839-2.614 3.839-5.634 0-2.613-1.144-5.473-3.839-5.473h-28.337c-2.777 0-5.553 1.308-5.553 3.921v51.855c0 2.613 3.185 3.921 6.37 3.921s6.369-1.308 6.369-3.921v-21.068h12.331c2.695 0 3.839-2.613 3.839-4.82 0-2.613-1.389-4.979-3.839-4.979h-12.331v-13.8z" fill="url(#linear-gradient-9)"/><path d="m343.1 388.266c-3.756 0-6.7 2.693-6.7 5.8s2.94 5.88 6.7 5.88c3.675 0 6.615-2.778 6.615-5.88s-2.944-5.8-6.615-5.8z" fill="url(#linear-gradient-10)"/><path d="m336.808 411.293v31.114c0 1.962 2.614 3.921 6.288 3.921 3.512 0 6.37-1.959 6.37-3.921v-31.114c0-2.286-2.858-3.836-6.37-3.836-3.674 0-6.288 1.55-6.288 3.836z" fill="url(#linear-gradient-11)"/><path d="m79.055 490.779h353.89a74.138 74.138 0 0 0 74.055-74.787c-.395-40.768-34.225-73.323-74.995-73.323h-122.618a57.771 57.771 0 1 0 -106.774 0h-57.465a6 6 0 0 0 0 12h64.224a57.693 57.693 0 0 0 93.256 0h129.372c34.054 0 62.471 27.041 62.991 61.09a62.125 62.125 0 0 1 -62.048 63.02h-352.943c-34.054 0-62.471-27.041-62.991-61.09a62.125 62.125 0 0 1 62.048-63.02h26.093a6 6 0 1 0 0-12h-25.15c-40.771 0-74.6 32.556-75 73.325a74.137 74.137 0 0 0 74.055 74.785zm176.945-124.392a45.772 45.772 0 1 1 45.771-45.772 45.823 45.823 0 0 1 -45.771 45.772z" fill="url(#linear-gradient)"/></svg>