<svg height="512" viewBox="0 0 512 512" width="512" xmlns="http://www.w3.org/2000/svg"><g id="filled_outline" data-name="filled outline"><path d="m296 464h-80v-16a28.944 28.944 0 0 0 16-25.889v-14.111h48v14.111a28.944 28.944 0 0 0 16 25.889z" fill="#cbcbcb"/><path d="m384 376v24a16 16 0 0 1 -16 16h-224a16 16 0 0 1 -16-16v-24z" fill="#e4e4e2"/><path d="m200 232h-16v-76.687l-61.657-61.656 11.314-11.314 64 64a8 8 0 0 1 2.343 5.657z" fill="#99d8aa"/><path d="m248 96h16v136h-16z" fill="#99d8aa"/><path d="m328 232h-16v-80a8 8 0 0 1 2.343-5.657l64-64 11.314 11.314-61.657 61.656z" fill="#99d8aa"/><path d="m216 184h16v48h-16z" fill="#99d8aa"/><path d="m216 152h16v16h-16z" fill="#99d8aa"/><path d="m280 184h16v48h-16z" fill="#99d8aa"/><path d="m280 152h16v16h-16z" fill="#99d8aa"/><path d="m376 248h32v16h-32z" fill="#99d8aa"/><path d="m104 248h32v16h-32z" fill="#99d8aa"/><path d="m128 384v-144a16 16 0 0 1 16-16h224a16 16 0 0 1 16 16v144z" fill="#41dfd0"/><path d="m298.287 353.252a8 8 0 0 1 -7.048-4.2 40.022 40.022 0 0 0 -70.478 0 8 8 0 0 1 -14.081-7.6 56.022 56.022 0 0 1 98.64 0 8 8 0 0 1 -7.033 11.8z" fill="#37c9c3"/><path d="m322.317 331.221a7.993 7.993 0 0 1 -6.631-3.516 72.033 72.033 0 0 0 -119.372 0 8 8 0 1 1 -13.248-8.971 88.032 88.032 0 0 1 145.868 0 8 8 0 0 1 -6.617 12.487zm23.759-21.79a7.988 7.988 0 0 1 -6.437-3.243 104 104 0 0 0 -167.278 0 8 8 0 1 1 -12.862-9.516 120 120 0 0 1 193 0 8 8 0 0 1 -6.425 12.759z" fill="#37c9c3"/><g fill="#99d8aa"><path d="m72 304h56v16h-56z"/><path d="m112 104a32 32 0 1 1 32-32 32.036 32.036 0 0 1 -32 32zm0-48a16 16 0 1 0 16 16 16.019 16.019 0 0 0 -16-16z"/><path d="m48 344a32 32 0 1 1 32-32 32.036 32.036 0 0 1 -32 32zm0-48a16 16 0 1 0 16 16 16.019 16.019 0 0 0 -16-16z"/><path d="m384 304h56v16h-56z"/><path d="m464 344a32 32 0 1 1 32-32 32.036 32.036 0 0 1 -32 32zm0-48a16 16 0 1 0 16 16 16.019 16.019 0 0 0 -16-16z"/><path d="m400 104a32 32 0 1 1 32-32 32.036 32.036 0 0 1 -32 32zm0-48a16 16 0 1 0 16 16 16.019 16.019 0 0 0 -16-16z"/><path d="m256 104a32 32 0 1 1 32-32 32.036 32.036 0 0 1 -32 32zm0-48a16 16 0 1 0 16 16 16.019 16.019 0 0 0 -16-16z"/><path d="m72 248h16v16h-16z"/><path d="m88 360h40v16h-40z"/><path d="m56 360h16v16h-16z"/><path d="m424 248h16v16h-16z"/><path d="m384 360h40v16h-40z"/><path d="m440 360h16v16h-16z"/></g><circle cx="256" cy="368" fill="#37c9c3" r="16"/><path d="m256 344a24 24 0 1 0 24 24 24.027 24.027 0 0 0 -24-24zm0 32a8 8 0 1 1 8-8 8.009 8.009 0 0 1 -8 8z"/><path d="m256 312a55.987 55.987 0 0 0 -49.32 29.451 8 8 0 0 0 14.081 7.6 40.022 40.022 0 0 1 70.478 0 8 8 0 0 0 14.081-7.6 55.987 55.987 0 0 0 -49.32-29.451z"/><path d="m256 248a120.533 120.533 0 0 0 -96.5 48.672 8 8 0 1 0 12.862 9.516 104 104 0 0 1 167.278 0 8 8 0 0 0 12.862-9.516 120.533 120.533 0 0 0 -96.502-48.672z"/><path d="m256 280a88.005 88.005 0 0 0 -72.934 38.734 8 8 0 1 0 13.248 8.971 72.033 72.033 0 0 1 119.372 0 8 8 0 1 0 13.248-8.971 88.005 88.005 0 0 0 -72.934-38.734z"/><path d="m464 280a32.056 32.056 0 0 0 -30.987 24h-41.013v-40h16v-16h-16v-8a24.028 24.028 0 0 0 -24-24h-40v-60.687l55.758-55.757a32.037 32.037 0 1 0 -11.314-11.314l-58.1 58.1a8 8 0 0 0 -2.344 5.658v64h-16v-32h-16v32h-16v-113.013a32 32 0 1 0 -16 0v113.013h-16v-32h-16v32h-16v-64a8 8 0 0 0 -2.343-5.657l-58.1-58.1a32.037 32.037 0 1 0 -11.314 11.314l55.757 55.756v60.687h-40a24.028 24.028 0 0 0 -24 24v8h-16v16h16v40h-41.013a32 32 0 1 0 0 16h41.013v40h-32v16h32v24a24.028 24.028 0 0 0 24 24h79.906a20.808 20.808 0 0 1 -11.484 16.845 8 8 0 0 0 -4.422 7.155v16a8 8 0 0 0 8 8h80a8 8 0 0 0 8-8v-16a8 8 0 0 0 -4.422-7.155 20.808 20.808 0 0 1 -11.484-16.845h79.906a24.028 24.028 0 0 0 24-24v-24h32v-16h-32v-40h41.013a32 32 0 1 0 30.987-40zm-64-224a16 16 0 1 1 -16 16 16.019 16.019 0 0 1 16-16zm-288 32a16 16 0 1 1 16-16 16.019 16.019 0 0 1 -16 16zm-64 240a16 16 0 1 1 16-16 16.019 16.019 0 0 1 -16 16zm192-256a16 16 0 1 1 16 16 16.019 16.019 0 0 1 -16-16zm48 384h-64v-3.446a36.68 36.68 0 0 0 15.943-28.554h32.114a36.68 36.68 0 0 0 15.943 28.554zm88-80h-80a8 8 0 0 0 0 16h80v8a8.009 8.009 0 0 1 -8 8h-224a8.009 8.009 0 0 1 -8-8v-8h80a8 8 0 0 0 0-16h-80v-136a8.009 8.009 0 0 1 8-8h224a8.009 8.009 0 0 1 8 8zm88-48a16 16 0 1 1 16-16 16.019 16.019 0 0 1 -16 16z"/><path d="m216 152h16v16h-16z"/><path d="m280 152h16v16h-16z"/><path d="m72 248h16v16h-16z"/><path d="m56 360h16v16h-16z"/><path d="m424 248h16v16h-16z"/><path d="m440 360h16v16h-16z"/></g></svg>